<?xml version="1.0" standalone="no"?>
<!DOCTYPE svg PUBLIC "-//W3C//DTD SVG 20010904//EN"
 "http://www.w3.org/TR/2001/REC-SVG-20010904/DTD/svg10.dtd">
<svg version="1.0" xmlns="http://www.w3.org/2000/svg"
 width="512.000000pt" height="512.000000pt" viewBox="0 0 512.000000 512.000000"
 preserveAspectRatio="xMidYMid meet">
<metadata>
Created by potrace 1.14, written by Peter Selinger 2001-2017
</metadata>
<g transform="translate(0.000000,512.000000) scale(0.100000,-0.100000)"
fill="#000000" stroke="none">
<path d="M2408 5035 c-2 -1 -39 -5 -83 -9 -44 -3 -107 -11 -140 -16 -33 -6
-76 -13 -95 -16 -163 -27 -419 -113 -605 -204 -222 -108 -398 -225 -571 -379
-172 -153 -291 -290 -421 -486 -51 -76 -163 -270 -163 -281 0 -2 -11 -27 -24
-56 -78 -169 -153 -401 -180 -563 -3 -16 -8 -41 -11 -55 -5 -26 -10 -66 -22
-165 -14 -114 -7 -463 10 -580 23 -150 25 -157 52 -265 58 -232 142 -439 259
-643 43 -76 45 -82 47 -168 1 -68 7 -100 24 -137 38 -82 120 -132 215 -132 26
0 49 -17 138 -102 149 -143 199 -184 342 -280 332 -222 709 -361 1105 -406 80
-9 473 -9 555 0 289 34 563 115 830 248 587 290 1041 819 1249 1451 12 36 23
74 26 85 2 10 11 44 20 74 20 72 46 221 64 365 9 71 7 482 -2 522 -3 11 -8 43
-12 70 -16 118 -70 352 -101 435 -9 24 -25 68 -37 98 -258 690 -839 1245
-1545 1476 -68 22 -136 42 -172 49 -93 21 -224 46 -260 50 -25 3 -58 8 -74 11
-27 6 -412 14 -418 9z"/>
</g>
</svg>
